<?xml version="1.0" standalone="no"?>
<!DOCTYPE svg PUBLIC "-//W3C//DTD SVG 20010904//EN"
 "http://www.w3.org/TR/2001/REC-SVG-20010904/DTD/svg10.dtd">
<svg version="1.0" xmlns="http://www.w3.org/2000/svg"
 width="1346.000000pt" height="1346.000000pt" viewBox="0 0 1346.000000 1346.000000"
 preserveAspectRatio="xMidYMid meet">
<metadata>
Created by potrace 1.14, written by Peter Selinger 2001-2017
</metadata>
<g transform="translate(0.000000,1346.000000) scale(0.100000,-0.100000)"
fill="#000000" stroke="none">
<path d="M5845 12485 c-5 -2 -55 -13 -110 -26 -55 -12 -113 -29 -130 -37 -18
-9 -57 -15 -100 -14 -38 0 -95 -6 -125 -14 -30 -7 -71 -16 -90 -19 -19 -3 -50
-15 -70 -25 -19 -11 -84 -31 -144 -45 -73 -17 -118 -33 -137 -49 -18 -15 -58
-31 -110 -42 -45 -10 -97 -28 -118 -42 -20 -14 -60 -33 -89 -43 -29 -10 -71
-32 -92 -49 -21 -16 -47 -30 -58 -30 -23 0 -108 -56 -168 -110 -24 -23 -56
-40 -79 -44 -47 -9 -145 -74 -181 -121 -17 -23 -37 -37 -61 -41 -55 -10 -141
-75 -238 -180 -49 -53 -101 -106 -115 -118 -14 -11 -41 -39 -60 -60 -19 -22
-52 -56 -73 -75 -58 -56 -261 -258 -274 -275 -29 -34 -53 -83 -53 -105 0 -16
-25 -47 -80 -101 -95 -91 -146 -160 -161 -215 -6 -22 -24 -58 -40 -81 -17 -22
-36 -63 -43 -90 -7 -27 -25 -67 -40 -88 -14 -21 -26 -45 -26 -53 0 -14 -26
-59 -48 -81 -17 -19 -38 -61 -46 -96 -4 -16 -21 -48 -38 -72 -20 -28 -37 -72
-52 -136 -12 -52 -31 -108 -42 -124 -12 -16 -31 -76 -44 -134 -13 -57 -31
-118 -40 -135 -17 -29 -57 -198 -58 -243 -1 -12 -9 -35 -20 -50 -31 -44 -65
-215 -59 -292 5 -55 2 -71 -17 -105 -13 -22 -32 -83 -43 -135 -19 -84 -21
-138 -24 -470 -8 -827 -1 -1542 14 -1566 3 -6 2 -27 -4 -47 -7 -25 -7 -49 0
-74 8 -27 7 -62 -1 -120 -11 -74 -10 -92 11 -190 12 -59 31 -123 41 -141 17
-27 20 -55 21 -190 1 -86 5 -166 10 -177 4 -11 15 -54 24 -95 9 -41 23 -85 30
-97 9 -12 16 -60 19 -120 6 -110 34 -236 65 -286 11 -19 18 -42 15 -54 -7 -26
44 -243 62 -264 8 -8 14 -31 14 -50 0 -19 5 -51 10 -71 10 -36 9 -38 -35 -82
-60 -60 -69 -59 -61 5 7 53 -23 216 -50 270 -21 43 -167 220 -227 276 -66 61
-128 98 -179 107 -36 6 -36 7 -27 39 5 17 9 87 9 154 0 135 -32 299 -68 351
-11 15 -28 65 -37 111 -10 46 -28 98 -41 116 -12 18 -31 72 -42 120 -13 52
-32 103 -48 127 -39 55 -163 198 -173 198 -5 0 -5 19 1 43 14 63 12 419 -3
462 -2 6 28 42 67 80 105 105 130 145 159 260 23 93 25 117 24 335 0 209 -3
246 -23 332 -28 118 -74 192 -157 252 -31 22 -68 58 -84 79 -35 49 -138 124
-187 138 -21 5 -59 23 -85 39 -90 55 -197 73 -468 75 -222 2 -247 1 -338 -21
-72 -17 -110 -32 -140 -56 -62 -47 -251 -239 -281 -285 -15 -23 -38 -83 -51
-137 -22 -88 -24 -118 -24 -334 0 -214 2 -247 23 -335 17 -70 33 -111 56 -143
l32 -45 -35 -52 c-99 -148 -105 -598 -10 -766 14 -24 61 -80 105 -124 117
-118 139 -148 125 -172 -23 -42 -59 -221 -58 -290 1 -92 39 -262 66 -300 12
-16 30 -66 39 -110 20 -88 44 -137 102 -204 24 -27 38 -53 36 -66 -2 -12 8
-67 21 -123 18 -76 33 -115 61 -155 56 -81 219 -217 277 -232 25 -6 26 -9 18
-45 -6 -26 -4 -55 7 -96 9 -33 16 -85 15 -116 0 -32 10 -104 24 -160 28 -116
53 -158 150 -252 106 -104 149 -130 255 -154 52 -12 102 -22 111 -22 13 0 17
-14 18 -77 1 -43 4 -94 6 -113 5 -50 36 -181 48 -205 32 -61 93 -127 157 -170
38 -25 70 -53 70 -61 0 -29 87 -132 145 -172 47 -33 83 -48 163 -67 56 -14
107 -23 112 -20 11 7 23 -12 26 -40 10 -79 45 -192 75 -233 76 -108 225 -234
291 -246 24 -4 44 -17 61 -39 61 -79 178 -132 345 -155 50 -7 55 -9 66 -42 12
-37 86 -143 108 -157 7 -4 25 -24 40 -44 81 -109 233 -159 488 -158 188 0 324
27 396 77 40 29 43 30 49 12 4 -11 4 -24 1 -29 -4 -5 5 -56 19 -112 29 -120
53 -160 159 -263 97 -94 129 -114 237 -140 80 -20 123 -23 291 -25 109 0 219
4 244 9 52 12 42 19 116 -79 54 -72 129 -118 239 -145 89 -23 116 -25 335 -25
181 0 253 3 297 15 l58 15 43 -32 c31 -21 73 -38 142 -54 93 -22 119 -23 443
-23 327 -1 350 1 443 23 59 13 114 33 136 48 33 24 41 25 81 16 42 -9 134 -13
271 -10 100 1 248 37 297 72 39 27 46 29 80 20 68 -19 213 -13 330 14 59 14
120 32 135 40 14 8 46 16 70 16 36 1 168 27 230 45 10 3 45 25 78 50 l61 44
62 -44 c51 -36 81 -49 167 -70 92 -23 125 -26 260 -24 269 2 400 50 497 183
24 33 48 77 54 99 6 21 25 60 43 85 46 68 78 215 71 336 -3 50 -5 95 -5 100 1
6 2 62 3 125 l3 115 84 -2 c47 -1 110 -5 140 -9 77 -9 276 12 395 41 110 28
154 53 246 145 99 99 121 138 153 282 4 19 11 25 23 22 10 -3 64 6 121 19 103
25 189 70 231 122 9 11 30 31 48 43 31 22 115 132 119 155 1 7 12 52 23 101
12 48 20 91 17 93 -3 3 -1 13 4 23 6 11 32 22 72 30 73 14 85 20 154 72 60 45
121 130 137 191 10 36 26 56 84 107 133 117 177 213 188 414 5 92 12 106 50
106 30 0 148 89 175 132 13 20 33 47 44 60 56 62 79 111 107 225 24 105 27
137 28 288 0 132 -5 190 -20 260 -11 50 -24 98 -29 107 -8 14 -5 19 13 23 12
3 57 14 99 24 92 22 172 72 230 145 52 65 62 87 83 176 19 82 63 182 108 247
43 61 69 182 72 338 2 90 -1 149 -12 192 l-15 63 31 42 c52 72 79 206 80 390
0 102 -5 176 -15 223 l-16 70 34 51 c25 37 40 76 55 149 20 88 22 123 18 300
-2 110 -5 205 -5 210 -1 6 0 28 3 49 7 47 -32 223 -58 263 -71 110 -157 212
-209 247 -68 47 -215 84 -330 85 -106 0 -255 -39 -322 -85 -99 -68 -94 -67
-479 -74 -316 -5 -357 -8 -427 -27 -93 -26 -160 -72 -227 -157 -45 -56 -53
-74 -75 -167 -13 -57 -24 -124 -25 -149 -1 -48 34 -215 55 -265 19 -45 139
-205 181 -241 l36 -32 -32 -45 c-53 -73 -81 -213 -77 -379 2 -73 5 -137 7
-143 2 -5 -8 -30 -23 -55 -49 -84 -66 -200 -63 -420 2 -162 6 -211 25 -288 29
-121 59 -167 201 -311 l54 -54 -35 -13 c-19 -7 -43 -13 -53 -13 -11 -1 -32
-11 -49 -22 -28 -20 -31 -21 -66 -5 -50 22 -190 54 -271 62 -52 5 -90 1 -167
-16 -54 -13 -108 -27 -119 -33 -51 -26 -125 -92 -159 -142 -81 -116 -109 -362
-65 -557 25 -109 35 -130 94 -202 l45 -55 -21 -36 c-12 -19 -24 -35 -29 -35
-4 0 -34 -18 -66 -40 -33 -22 -67 -40 -77 -40 -10 0 -53 9 -95 19 -106 26
-196 26 -311 1 -128 -29 -154 -44 -252 -145 -102 -105 -129 -152 -160 -283
-16 -64 -29 -142 -29 -172 1 -50 41 -244 54 -258 3 -3 -10 -16 -28 -29 -36
-24 -118 -124 -135 -164 -6 -13 -17 -54 -25 -91 -9 -36 -26 -82 -39 -101 -13
-19 -30 -63 -37 -97 -10 -49 -16 -60 -29 -54 -41 16 -172 45 -225 49 -32 2
-60 5 -61 7 -2 2 7 49 20 104 l24 100 -24 99 c-13 54 -33 111 -44 126 -17 23
-19 38 -15 139 3 78 9 119 19 134 9 11 20 39 26 61 6 22 25 58 41 82 34 47 80
219 71 264 -3 16 3 45 15 71 44 100 65 224 67 388 1 117 5 162 17 185 8 17 25
75 38 130 27 116 35 337 15 414 -9 37 -9 57 2 100 11 41 12 64 4 96 -7 27 -7
53 -1 75 7 23 5 51 -7 101 -14 58 -15 78 -5 127 7 32 12 68 12 81 0 12 11 41
24 64 13 23 33 83 45 133 44 190 16 548 -50 637 -41 56 -48 100 -27 180 10 40
18 80 18 89 0 13 22 21 98 38 53 12 117 33 142 47 l45 24 450 -1 c420 -1 455
0 528 19 96 24 174 75 228 148 50 67 54 76 84 211 24 107 25 115 10 170 -11
46 -12 66 -3 97 6 22 11 90 10 150 -1 88 -7 133 -32 225 -46 171 -49 194 -44
330 4 109 2 138 -20 228 -14 57 -34 118 -45 136 -12 18 -18 36 -15 39 10 9
-38 199 -62 247 -12 25 -30 81 -39 125 -10 44 -28 99 -41 122 -13 22 -32 78
-43 123 -12 53 -30 97 -49 124 -17 23 -34 60 -38 81 -4 22 -27 69 -51 104 -23
35 -43 69 -43 75 0 7 -13 32 -29 57 -16 24 -33 62 -37 84 -3 22 -22 63 -42 90
-36 51 -98 115 -112 115 -4 0 -13 21 -19 46 -12 46 -40 89 -113 171 -21 24
-38 49 -38 56 0 16 -56 101 -110 166 -53 64 -239 251 -295 296 -28 21 -54 46
-59 55 -5 8 -27 32 -48 53 -21 20 -65 67 -98 103 -66 75 -161 144 -197 144
-17 0 -48 25 -106 84 -96 98 -172 152 -225 161 -26 4 -46 15 -59 33 -24 33
-154 122 -178 122 -9 0 -37 16 -62 35 -25 19 -64 40 -87 46 -23 6 -59 24 -81
40 -22 16 -56 34 -77 39 -20 6 -59 25 -86 43 -33 23 -75 39 -133 51 -46 10
-102 29 -124 41 -22 12 -83 33 -135 45 -52 13 -106 30 -120 40 -14 9 -63 25
-110 35 -47 10 -96 27 -110 37 -43 31 -216 67 -305 64 -60 -2 -87 1 -110 14
-16 10 -75 28 -130 41 -89 21 -120 23 -290 20 -345 -5 -678 -4 -850 2 -93 3
-174 4 -180 2z m-1261 -6302 c-4 -10 -9 -72 -11 -138 -3 -125 21 -272 54 -340
57 -113 169 -204 278 -226 57 -11 65 -15 65 -35 0 -47 43 -211 66 -251 13 -22
31 -76 41 -119 11 -51 28 -94 49 -124 18 -26 36 -64 40 -84 8 -47 75 -148 120
-182 21 -16 38 -40 44 -63 14 -53 85 -145 194 -252 53 -52 118 -116 144 -144
26 -27 94 -96 152 -152 186 -182 284 -280 315 -315 88 -95 208 -188 245 -188
13 0 39 -18 64 -43 40 -42 147 -125 153 -119 10 11 67 -14 90 -40 40 -43 147
-118 169 -118 11 0 41 -16 68 -35 28 -19 67 -40 89 -46 21 -6 60 -25 85 -43
26 -19 63 -36 82 -40 19 -3 48 -17 65 -30 l30 -24 -45 -11 c-100 -26 -152 -59
-260 -163 -77 -74 -109 -125 -130 -208 -10 -40 -21 -74 -24 -78 -4 -3 -91 -6
-194 -7 -160 -1 -200 -5 -274 -25 -104 -27 -145 -21 -225 33 -108 73 -361 98
-556 55 -118 -26 -131 -20 -130 59 0 62 12 194 18 203 10 16 -44 211 -71 257
-32 55 -120 145 -165 168 -117 61 -362 74 -541 30 -76 -19 -110 -33 -152 -64
-56 -42 -146 -150 -146 -177 0 -8 -21 15 -47 53 -49 72 -50 73 -129 129 -39
27 -77 42 -154 60 -56 13 -119 24 -141 24 -35 0 -42 5 -79 54 -22 30 -46 59
-52 63 -7 4 -25 24 -39 43 -35 47 -128 110 -179 121 -31 7 -55 24 -95 66 l-54
57 35 42 c27 33 39 63 57 141 31 131 33 220 8 328 -12 48 -21 95 -21 105 0 10
17 32 38 48 52 41 111 130 127 192 8 29 21 60 30 70 9 10 25 42 36 71 11 29
33 69 48 88 16 20 32 51 36 69 3 17 22 54 40 81 19 27 37 65 40 84 4 20 22 58
41 84 19 26 34 55 34 63 0 9 20 47 45 84 25 38 50 87 56 110 6 23 24 61 40 85
16 25 29 52 29 61 0 9 14 37 32 61 17 23 39 70 49 102 10 33 25 67 33 76 8 9
24 38 36 63 11 25 36 70 55 98 19 29 35 57 35 64 0 37 24 88 51 107 31 22 106
47 148 48 18 1 22 -2 15 -16z m4030 -3193 c27 -6 53 -13 59 -17 5 -3 -11 -24
-35 -48 -44 -43 -52 -52 -79 -95 -13 -20 -23 -25 -55 -23 -21 1 -61 2 -88 2
l-49 1 40 29 c37 27 123 141 123 163 0 5 8 7 18 4 9 -3 39 -10 66 -16z m-652
-259 c5 -4 -8 -5 -27 -3 -19 2 -35 8 -35 13 0 10 49 1 62 -10z"/>
</g>
</svg>
